<?xml version="1.0" standalone="no"?>
<!DOCTYPE svg PUBLIC "-//W3C//DTD SVG 20010904//EN"
 "http://www.w3.org/TR/2001/REC-SVG-20010904/DTD/svg10.dtd">
<svg version="1.0" xmlns="http://www.w3.org/2000/svg"
 width="30.000000pt" height="30.000000pt" viewBox="0 0 30.000000 30.000000"
 preserveAspectRatio="xMidYMid meet">

<g transform="translate(0.000000,30.000000) scale(0.100000,-0.100000)"
fill="#000000" stroke="none">
<path d="M252 243 c0 -61 -22 -115 -63 -160 l-22 -23 21 0 c29 0 55 43 71 116
7 30 19 58 27 61 8 3 14 18 14 34 0 24 -4 29 -24 29 -22 0 -24 -4 -24 -57z"/>
<path d="M120 175 c-22 -23 -29 -35 -19 -35 19 0 62 45 57 60 -2 6 -19 -5 -38
-25z"/>
<path d="M177 155 c-24 -20 -34 -36 -27 -40 14 -8 56 18 70 44 17 33 -3 31
-43 -4z"/>
</g>
</svg>
